<?xml version="1.0" encoding="UTF-8"?>
<svg id="Layer_3" data-name="Layer 3" xmlns="http://www.w3.org/2000/svg" viewBox="0 0 1480.17 740.55" class='all'>
  <defs>
    <style>
      .all {
        fill: #191919;
        transition: all 0.2s;
      }
      .all:hover {
        transition: all 0.2s;
        fill: #F59E0B;
      }
    </style>
  </defs>
  <g class='cls-12'>
    <path class="cls-1" d="m280.46,514.85c11.19,8.98,23.17,17.14,33.43,27.08,32.23,31.18,32.21,69.64,22.45,109.54-12,49.05-46.89,72.66-93.64,82.34-44.96,9.31-90.47,6.75-135.83,5.26-29.28-.96-58.52-3.47-87.76-5.6-15.18-1.11-16.89-3.25-16.96-18.14-.41-83.51-.91-167.01-1.19-250.52-.18-52.05-2.07-150.9-.03-157.95,2.48-8.58,67.1-8.7,90.31-10.89,49.85-4.7,80.4-3.86,130.24,3.05,64.74,8.98,95.98,43.69,98.24,109.4,1.59,46.21-4.68,63.18-39.27,106.44Zm-134.52,110.21c18.1-.39,35.98,3.7,46.31-13.96,6.04-10.33,5.38-21.77-2.52-31.42-11.9-14.53-27.98-12.79-43.79-11.28v56.65Zm-1.01-165.43c8.71-1.41,17-1.66,24.54-4.17,19.32-6.44,26.91-25.6,17.09-41.09-5.79-9.12-41.34-11.35-41.38-9.45-.41,17.58-.24,35.17-.24,54.72Z"/>
    <path class="cls-1" d="m1474.15,307c6.59,34.81,7.79,64.33,3.51,94.13-3.48,24.23-19.42,21.23-44.61,21.23-33.08,0-66.16-.11-99.24.05-18.41.09-46.83,9.54-51.84,44.98-9.02,45.83-11.64,52.42-1.93,98.23,5.52,26.06,36.5,50.01,64.52,48.15,0-36.4-.58-100.93,6.36-107.09,7.08-6.29,61.79-4.25,95.53-3.78,25.85.36,26.51.83,26.67,26.29.39,61.57-.03,123.14.21,184.71.03,7.59-2.31,11.03-9.87,12.4-54.29,9.79-113.6,11.79-163.97,9.86-45.26-4.51-115.75-15.3-142.7-109.14-18.66-70.84-19.35-142.4.12-213.28,19.34-70.44,68.71-106.58,139.1-116.11,59.27-8.02,175.2-6.18,178.14,9.37Z"/>
    <path class="cls-1" d="m559.89,737.37c-43.35,0-83.31.56-123.24-.2-25.21-.48-25.06-1.36-25.22-23.6-.63-86.42-1.41-172.84-2.01-259.26-.21-30.54-.03-61.09-.03-92.79,15.74-.63,28.76-1.62,41.78-1.59,31.41.07,62.81.75,94.22.86,8.93.03,12.52,2.96,12.56,10.77.52,98.87,1.29,197.74,1.93,296.62.15,22.65.02,45.29.02,69.19Z"/>
    <path class="cls-1" d="m580.37,163.73c32.97,0,65.49-.11,98.01.06,11.98.06,23.95.99,35.93,1.1,7.7.07,11.19,4.26,11.24,14.65.67,138.39,1.66,276.77,2.13,415.16.13,38.89-1.17,77.79-1.77,116.69-.12,7.96-.02,15.92-.02,25.91-41.63,0-81.59.85-121.5-.31-25.32-.74-25.16-2.08-25.32-35.79-.63-127.03-1.6-254.07-1.91-381.1-.11-47.54,1.24-95.09,1.98-142.63.06-3.65.63-7.29,1.23-13.72Z"/>
    <path class="cls-1" d="m752.3,360.89c45.78,0,89.95.06,134.13-.05,8.6-.02,11.37,3.47,11.44,10.55.75,76.09,2.14,152.19,2.47,228.28.17,40.52-1.4,81.05-2.16,121.58-.09,4.89-.01,9.78-.01,16.29-41.08,0-80.6.59-120.09-.2-26.7-.54-26.56-1.41-26.74-24.61-.63-82.86-1.61-165.71-1.91-248.57-.11-31.27,1.27-62.55,2.02-93.83.07-2.78.49-5.56.86-9.44Z"/>
    <path class="cls-1" d="m1070.42,737.02c-46.67,0-91.58,0-136.49,0-8.46,0-9.86-4.66-9.96-10.73-.38-23.82-1.33-47.63-1.51-71.45-.46-62.59-.68-125.19-.89-187.78-.12-34.8-.02-69.61-.02-105.55,16.06-.64,29.07-1.61,42.07-1.58,31.4.07,62.8.77,94.2.86,9.11.03,12.39,3.36,12.46,10.92.7,78.94,1.94,157.88,2.25,236.83.15,38.39-1.37,76.78-2.1,115.18-.08,4.16-.01,8.32-.01,13.3Z"/>
    <path class="cls-1" d="m753.81,164.47c32.97,0,65.49-.11,98.01.06,11.98.06,23.95.99,35.93,1.1,7.7.07,11.19,4.26,11.24,14.65.67,138.39,1.66,276.77,2.13,415.16.13,38.89-1.17,77.79-1.77,116.69-.12,7.96-.02,15.92-.02,25.91-41.63,0-81.59.85-121.5-.31-25.32-.74-25.16-2.08-25.32-35.79-.63-127.03-1.6-254.07-1.91-381.1-.11-47.54,1.24-95.09,1.98-142.63.06-3.65.63-7.29,1.23-13.72Z"/>
    <path class="cls-1" d="m545.97,271.75c0,14.44,3.51,43.47-2.38,48.53-5.38,4.63-45,5.66-63.96,5.66-17.46,0-53.29-1.74-59.79-6.02-7.11-4.68-6.55-32.5-6.55-48.17,0-15.55-1.9-42.4,6.06-46.86,5.76-3.23,43.04-4.61,60.64-4.67,52.24-.18,64.21.72,64.21.72,0,0,1.77,35.53,1.77,50.82Z"/>
    <path class="cls-1" d="m1055.99,277.43c0,14.44,3.51,43.47-2.38,48.53-5.38,4.63-45,5.66-63.96,5.66-17.46,0-53.29-1.74-59.79-6.02-7.11-4.68-6.55-32.5-6.55-48.17,0-15.55-1.9-42.4,6.06-46.86,5.76-3.23,43.04-4.61,60.64-4.67,52.24-.18,64.21.72,64.21.72,0,0,1.77,35.53,1.77,50.82Z"/>
  </g>
</svg>